<svg width="69" height="63" viewBox="0 0 69 63" fill="none" xmlns="http://www.w3.org/2000/svg">
<path d="M0.435059 3.14499C0.435059 1.78469 1.5378 0.681946 2.8981 0.681946H66.3214C67.6817 0.681946 68.7845 1.78469 68.7845 3.14499V59.7774C68.7845 61.1377 67.6817 62.2405 66.3214 62.2405H2.8981C1.5378 62.2405 0.435059 61.1377 0.435059 59.7774V3.14499Z" fill="white"/>
<path d="M21.7661 15.1462H20.7362V7.33633H21.7661V15.1462ZM24.4374 9.34244L24.4696 10.0719C24.913 9.51409 25.4923 9.23517 26.2075 9.23517C27.434 9.23517 28.0527 9.92712 28.0634 11.311V15.1462H27.0711V11.3057C27.0675 10.8873 26.9709 10.5779 26.7814 10.3777C26.5955 10.1774 26.304 10.0773 25.9071 10.0773C25.5853 10.0773 25.3028 10.1631 25.0596 10.3348C24.8164 10.5064 24.6269 10.7317 24.491 11.0106V15.1462H23.4987V9.34244H24.4374ZM32.9392 13.6068C32.9392 13.3386 32.8373 13.1312 32.6335 12.9846C32.4332 12.8344 32.081 12.7056 31.5768 12.5984C31.0762 12.4911 30.6774 12.3623 30.3806 12.2122C30.0874 12.062 29.8693 11.8832 29.7262 11.6758C29.5868 11.4684 29.517 11.2216 29.517 10.9355C29.517 10.4599 29.7173 10.0576 30.1178 9.72865C30.5219 9.39966 31.0368 9.23517 31.6626 9.23517C32.3206 9.23517 32.8534 9.40502 33.2611 9.74474C33.6723 10.0845 33.8779 10.5189 33.8779 11.0482H32.8802C32.8802 10.7764 32.764 10.5422 32.5316 10.3455C32.3027 10.1488 32.0131 10.0505 31.6626 10.0505C31.3014 10.0505 31.0189 10.1292 30.8151 10.2865C30.6113 10.4438 30.5094 10.6495 30.5094 10.9034C30.5094 11.1429 30.6041 11.3235 30.7937 11.4451C30.9832 11.5667 31.3247 11.6829 31.8182 11.7938C32.3152 11.9046 32.7175 12.0369 33.0251 12.1907C33.3326 12.3445 33.5597 12.5304 33.7063 12.7486C33.8565 12.9631 33.9316 13.2259 33.9316 13.5371C33.9316 14.0556 33.7242 14.4722 33.3093 14.7869C32.8945 15.098 32.3563 15.2535 31.6948 15.2535C31.2299 15.2535 30.8187 15.1713 30.4611 15.0068C30.1035 14.8423 29.8228 14.6134 29.6189 14.3202C29.4187 14.0234 29.3186 13.7033 29.3186 13.36H30.3109C30.3288 13.6926 30.4611 13.9572 30.7078 14.1539C30.9581 14.347 31.2871 14.4436 31.6948 14.4436C32.0703 14.4436 32.3707 14.3685 32.5959 14.2183C32.8248 14.0645 32.9392 13.8607 32.9392 13.6068ZM36.5706 7.93709V9.34244H37.6541V10.1095H36.5706V13.7087C36.5706 13.9411 36.6189 14.1164 36.7155 14.2344C36.812 14.3488 36.9765 14.406 37.2089 14.406C37.3234 14.406 37.4807 14.3846 37.681 14.3416V15.1462C37.4199 15.2178 37.166 15.2535 36.9193 15.2535C36.4759 15.2535 36.1415 15.1194 35.9162 14.8512C35.6909 14.583 35.5783 14.2022 35.5783 13.7087V10.1095H34.5216V9.34244H35.5783V7.93709H36.5706ZM42.4012 15.1462C42.344 15.0318 42.2975 14.828 42.2618 14.5347C41.8005 15.0139 41.2498 15.2535 40.6097 15.2535C40.0375 15.2535 39.5673 15.0926 39.199 14.7708C38.8342 14.4454 38.6518 14.0341 38.6518 13.5371C38.6518 12.9327 38.8807 12.4643 39.3384 12.1317C39.7997 11.7956 40.447 11.6275 41.2802 11.6275H42.2457V11.1716C42.2457 10.8247 42.142 10.5493 41.9346 10.3455C41.7272 10.1381 41.4214 10.0344 41.0173 10.0344C40.6633 10.0344 40.3665 10.1238 40.1269 10.3026C39.8873 10.4814 39.7675 10.6977 39.7675 10.9516H38.7698C38.7698 10.662 38.8718 10.3831 39.0756 10.1149C39.283 9.84308 39.5619 9.62852 39.9124 9.47118C40.2664 9.31384 40.6544 9.23517 41.0763 9.23517C41.7451 9.23517 42.2689 9.40324 42.648 9.73938C43.027 10.0719 43.2237 10.5315 43.238 11.1179V13.7892C43.238 14.322 43.306 14.7457 43.4419 15.0604V15.1462H42.4012ZM40.7545 14.3899C41.0656 14.3899 41.3606 14.3095 41.6396 14.1485C41.9185 13.9876 42.1205 13.7784 42.2457 13.521V12.3302H41.4679C40.2521 12.3302 39.6442 12.686 39.6442 13.3976C39.6442 13.7087 39.7479 13.9519 39.9553 14.1271C40.1627 14.3023 40.4291 14.3899 40.7545 14.3899ZM45.8717 15.1462H44.8794V6.90721H45.8717V15.1462ZM48.543 15.1462H47.5506V6.90721H48.543V15.1462Z" fill="black"/>
<path d="M4.89941 19.8766V39.7196H21.418V43.0458H34.6099V39.7196H64.3203V19.8766H4.89941Z" fill="#CB3837"/>
<path d="M14.7644 23.2029H8.22583V36.3933H14.7644V26.5292H18.0911V36.3933H21.4177V23.2029H14.7644ZM24.7444 23.2029V39.7196H31.3977V36.3933H37.9363V23.2029H24.7444ZM34.6096 33.067H31.3977V26.5292H34.6096V33.067ZM47.8015 23.2029H41.2629V36.3933H47.8015V26.5292H51.1282V36.3933H54.4548V26.5292H57.7815V36.3933H61.1081V23.2029H47.8015V23.2029Z" fill="white"/>
<path d="M12.6405 51.8609V54.9183H11.6106V47.1084H14.4911C15.3457 47.1084 16.0144 47.3266 16.4972 47.7628C16.9835 48.1991 17.2267 48.7766 17.2267 49.4954C17.2267 50.2535 16.9889 50.8382 16.5133 51.2494C16.0412 51.6571 15.3636 51.8609 14.4803 51.8609H12.6405ZM12.6405 51.0187H14.4911C15.0418 51.0187 15.4637 50.89 15.7569 50.6325C16.0502 50.3715 16.1968 49.996 16.1968 49.5061C16.1968 49.0412 16.0502 48.6693 15.7569 48.3904C15.4637 48.1115 15.0614 47.9667 14.5501 47.9559H12.6405V51.0187ZM21.904 54.9183C21.8468 54.8039 21.8003 54.6001 21.7646 54.3068C21.3033 54.786 20.7526 55.0256 20.1125 55.0256C19.5403 55.0256 19.0701 54.8647 18.7018 54.5429C18.337 54.2174 18.1546 53.8062 18.1546 53.3091C18.1546 52.7048 18.3835 52.2364 18.8412 51.9038C19.3025 51.5677 19.9498 51.3996 20.783 51.3996H21.7485V50.9436C21.7485 50.5968 21.6448 50.3214 21.4374 50.1176C21.23 49.9102 20.9242 49.8065 20.5201 49.8065C20.1661 49.8065 19.8693 49.8959 19.6297 50.0747C19.3901 50.2535 19.2703 50.4698 19.2703 50.7237H18.2726C18.2726 50.4341 18.3746 50.1551 18.5784 49.8869C18.7858 49.6152 19.0647 49.4006 19.4152 49.2433C19.7692 49.0859 20.1572 49.0073 20.5791 49.0073C21.2478 49.0073 21.7717 49.1753 22.1508 49.5115C22.5298 49.844 22.7265 50.3035 22.7408 50.89V53.5613C22.7408 54.0941 22.8088 54.5178 22.9446 54.8325V54.9183H21.904ZM20.2573 54.162C20.5684 54.162 20.8634 54.0816 21.1424 53.9206C21.4213 53.7597 21.6233 53.5505 21.7485 53.2931V52.1023H20.9707C19.7549 52.1023 19.147 52.4581 19.147 53.1697C19.147 53.4808 19.2507 53.724 19.4581 53.8992C19.6655 54.0744 19.9319 54.162 20.2573 54.162ZM26.6243 54.2157C26.9783 54.2157 27.2877 54.1084 27.5523 53.8938C27.8169 53.6793 27.9635 53.4111 27.9921 53.0892H28.9308C28.9129 53.4218 28.7985 53.7383 28.5875 54.0386C28.3765 54.339 28.094 54.5786 27.74 54.7574C27.3896 54.9362 27.0177 55.0256 26.6243 55.0256C25.834 55.0256 25.2047 54.7628 24.7362 54.2371C24.2713 53.7079 24.0389 52.9855 24.0389 52.0701V51.9038C24.0389 51.3388 24.1426 50.8364 24.35 50.3965C24.5574 49.9567 24.8542 49.6152 25.2404 49.372C25.6302 49.1288 26.0897 49.0073 26.6189 49.0073C27.2698 49.0073 27.8097 49.2022 28.2389 49.5919C28.6716 49.9817 28.9022 50.4877 28.9308 51.1099H27.9921C27.9635 50.7345 27.8205 50.4269 27.563 50.1873C27.3091 49.9442 26.9944 49.8226 26.6189 49.8226C26.1147 49.8226 25.7232 50.005 25.4442 50.3697C25.1689 50.7309 25.0312 51.2548 25.0312 51.9413V52.1291C25.0312 52.7978 25.1689 53.3127 25.4442 53.6739C25.7196 54.0351 26.1129 54.2157 26.6243 54.2157ZM31.6664 52.231L31.0442 52.88V54.9183H30.0519V46.6793H31.0442V51.6624L31.5752 51.0241L33.3829 49.1145H34.5898L32.3316 51.539L34.8526 54.9183H33.6886L31.6664 52.231ZM39.1974 54.9183C39.1402 54.8039 39.0937 54.6001 39.058 54.3068C38.5967 54.786 38.046 55.0256 37.4059 55.0256C36.8337 55.0256 36.3635 54.8647 35.9951 54.5429C35.6304 54.2174 35.448 53.8062 35.448 53.3091C35.448 52.7048 35.6769 52.2364 36.1346 51.9038C36.5959 51.5677 37.2431 51.3996 38.0763 51.3996H39.0419V50.9436C39.0419 50.5968 38.9382 50.3214 38.7307 50.1176C38.5233 49.9102 38.2176 49.8065 37.8135 49.8065C37.4595 49.8065 37.1627 49.8959 36.9231 50.0747C36.6835 50.2535 36.5637 50.4698 36.5637 50.7237H35.566C35.566 50.4341 35.6679 50.1551 35.8718 49.8869C36.0792 49.6152 36.3581 49.4006 36.7085 49.2433C37.0626 49.0859 37.4506 49.0073 37.8725 49.0073C38.5412 49.0073 39.0651 49.1753 39.4442 49.5115C39.8232 49.844 40.0199 50.3035 40.0342 50.89V53.5613C40.0342 54.0941 40.1021 54.5178 40.238 54.8325V54.9183H39.1974ZM37.5507 54.162C37.8618 54.162 38.1568 54.0816 38.4357 53.9206C38.7147 53.7597 38.9167 53.5505 39.0419 53.2931V52.1023H38.2641C37.0483 52.1023 36.4403 52.4581 36.4403 53.1697C36.4403 53.4808 36.544 53.724 36.7515 53.8992C36.9589 54.0744 37.2253 54.162 37.5507 54.162ZM41.3537 51.9682C41.3537 51.0634 41.5629 50.3447 41.9813 49.8119C42.3997 49.2755 42.954 49.0073 43.6441 49.0073C44.3522 49.0073 44.9047 49.2576 45.3016 49.7582L45.3499 49.1145H46.2564V54.7789C46.2564 55.5298 46.0329 56.1216 45.5859 56.5543C45.1425 56.987 44.5453 57.2034 43.7943 57.2034C43.3759 57.2034 42.9665 57.114 42.566 56.9352C42.1655 56.7564 41.8597 56.5114 41.6487 56.2003L42.1637 55.6049C42.5892 56.1306 43.1095 56.3934 43.7246 56.3934C44.2073 56.3934 44.5828 56.2575 44.851 55.9858C45.1228 55.714 45.2587 55.3314 45.2587 54.8379V54.339C44.8617 54.7968 44.32 55.0256 43.6334 55.0256C42.954 55.0256 42.4033 54.7521 41.9813 54.2049C41.5629 53.6578 41.3537 52.9122 41.3537 51.9682ZM42.3514 52.0808C42.3514 52.7352 42.4855 53.2501 42.7537 53.6256C43.0219 53.9975 43.3974 54.1835 43.8801 54.1835C44.5059 54.1835 44.9655 53.8992 45.2587 53.3306V50.6808C44.9547 50.1265 44.4988 49.8494 43.8909 49.8494C43.4081 49.8494 43.0309 50.0371 42.7591 50.4126C42.4873 50.7881 42.3514 51.3442 42.3514 52.0808ZM50.1667 55.0256C49.38 55.0256 48.7399 54.7681 48.2464 54.2532C47.7529 53.7347 47.5062 53.0427 47.5062 52.1774V51.995C47.5062 51.4193 47.6152 50.9061 47.8334 50.4555C48.0551 50.0014 48.3626 49.6474 48.756 49.3935C49.1529 49.136 49.582 49.0073 50.0433 49.0073C50.7979 49.0073 51.3843 49.2558 51.8027 49.7528C52.2211 50.2499 52.4303 50.9615 52.4303 51.8877V52.3007H48.4985C48.5128 52.8729 48.6791 53.336 48.9974 53.69C49.3192 54.0404 49.7269 54.2157 50.2203 54.2157C50.5708 54.2157 50.8676 54.1441 51.1108 54.0011C51.3539 53.8581 51.5667 53.6685 51.7491 53.4325L52.3552 53.9045C51.8689 54.6519 51.1394 55.0256 50.1667 55.0256ZM50.0433 49.8226C49.6428 49.8226 49.3067 49.9692 49.0349 50.2624C48.7631 50.5521 48.5951 50.9597 48.5307 51.4854H51.438V51.4103C51.4093 50.9061 51.2735 50.5163 51.0303 50.241C50.7871 49.962 50.4581 49.8226 50.0433 49.8226ZM56.9628 53.3789C56.9628 53.1107 56.8609 52.9033 56.6571 52.7567C56.4568 52.6065 56.1046 52.4777 55.6004 52.3705C55.0997 52.2632 54.701 52.1344 54.4042 51.9843C54.111 51.8341 53.8929 51.6553 53.7498 51.4479C53.6104 51.2405 53.5406 50.9937 53.5406 50.7076C53.5406 50.232 53.7409 49.8297 54.1414 49.5007C54.5455 49.1718 55.0604 49.0073 55.6862 49.0073C56.3442 49.0073 56.877 49.1771 57.2847 49.5168C57.6959 49.8566 57.9015 50.291 57.9015 50.8203H56.9038C56.9038 50.5485 56.7876 50.3143 56.5552 50.1176C56.3263 49.9209 56.0366 49.8226 55.6862 49.8226C55.325 49.8226 55.0425 49.9013 54.8387 50.0586C54.6349 50.2159 54.533 50.4216 54.533 50.6754C54.533 50.915 54.6277 51.0956 54.8172 51.2172C55.0068 51.3388 55.3483 51.455 55.8418 51.5659C56.3388 51.6767 56.7411 51.809 57.0486 51.9628C57.3562 52.1166 57.5833 52.3025 57.7299 52.5206C57.8801 52.7352 57.9552 52.998 57.9552 53.3091C57.9552 53.8277 57.7477 54.2443 57.3329 54.559C56.9181 54.8701 56.3799 55.0256 55.7184 55.0256C55.2535 55.0256 54.8423 54.9434 54.4847 54.7789C54.1271 54.6144 53.8464 54.3855 53.6425 54.0923C53.4423 53.7955 53.3422 53.4754 53.3422 53.1321H54.3345C54.3524 53.4647 54.4847 53.7293 54.7314 53.926C54.9817 54.1191 55.3107 54.2157 55.7184 54.2157C56.0939 54.2157 56.3942 54.1406 56.6195 53.9904C56.8484 53.8366 56.9628 53.6328 56.9628 53.3789Z" fill="black"/>
<path d="M2.8981 1.40033H66.3214V-0.0364414H2.8981V1.40033ZM68.0661 3.14499V59.7774H69.5029V3.14499H68.0661ZM66.3214 61.5221H2.8981V62.9589H66.3214V61.5221ZM1.15345 59.7774V3.14499H-0.283329V59.7774H1.15345ZM2.8981 61.5221C1.93456 61.5221 1.15345 60.741 1.15345 59.7774H-0.283329C-0.283329 61.5345 1.14105 62.9589 2.8981 62.9589V61.5221ZM68.0661 59.7774C68.0661 60.741 67.285 61.5221 66.3214 61.5221V62.9589C68.0785 62.9589 69.5029 61.5345 69.5029 59.7774H68.0661ZM66.3214 1.40033C67.285 1.40033 68.0661 2.18144 68.0661 3.14499H69.5029C69.5029 1.38793 68.0785 -0.0364414 66.3214 -0.0364414V1.40033ZM2.8981 -0.0364414C1.14105 -0.0364414 -0.283329 1.38793 -0.283329 3.14499H1.15345C1.15345 2.18144 1.93455 1.40033 2.8981 1.40033V-0.0364414Z" fill="#CB3837"/>
</svg>
